PathFileType	3	(X/Y/Z)	F:\ViconData\AntennenMessung\Messung1\Session1\ID24.trc
DataRate	CameraRate	NumFrames	NumMarkers	Units	OrigDataRate	OrigDataStartFrame	OrigNumFrames
120.0	120.0	6	70	mm	120.0	631	1260	
Frame#	Time	Ashort			Along			Atop			A4			Bshort			Blong			Btop			B4			Cshort			Clong			Ctop			C4			Dshort			Dlong			Dtop			D4			Eshort			Elong			Etop			E4			Fshort			Flong			Ftop			F4			Gshort			Glong			Gtop			G4			Hshort			Hlong			Htop			H4			I1			I2			I3			I4			I5			WandAshort			WandAlong			WandAtop			WandA4			WandA15			WandBshort			WandB4			WandB5			WandBtop			WandBlong			WandCshort			WandClong			WandCtop			WandC4			WandC5			Acenter			Aantenna			Bcenter			Bantenna			Ccenter			Cantenna			Dcenter			Dantenna			Ecenter			Eantenna			Fcenter			Fantenna			Gcenter			Gantenna			Hcenter			Hantenna			Icenter			Iantenna			
		X1	Y1	Z1	X2	Y2	Z2	X3	Y3	Z3	X4	Y4	Z4	X5	Y5	Z5	X6	Y6	Z6	X7	Y7	Z7	X8	Y8	Z8	X9	Y9	Z9	X10	Y10	Z10	X11	Y11	Z11	X12	Y12	Z12	X13	Y13	Z13	X14	Y14	Z14	X15	Y15	Z15	X16	Y16	Z16	X17	Y17	Z17	X18	Y18	Z18	X19	Y19	Z19	X20	Y20	Z20	X21	Y21	Z21	X22	Y22	Z22	X23	Y23	Z23	X24	Y24	Z24	X25	Y25	Z25	X26	Y26	Z26	X27	Y27	Z27	X28	Y28	Z28	X29	Y29	Z29	X30	Y30	Z30	X31	Y31	Z31	X32	Y32	Z32	X33	Y33	Z33	X34	Y34	Z34	X35	Y35	Z35	X36	Y36	Z36	X37	Y37	Z37	X38	Y38	Z38	X39	Y39	Z39	X40	Y40	Z40	X41	Y41	Z41	X42	Y42	Z42	X43	Y43	Z43	X44	Y44	Z44	X45	Y45	Z45	X46	Y46	Z46	X47	Y47	Z47	X48	Y48	Z48	X49	Y49	Z49	X50	Y50	Z50	X51	Y51	Z51	X52	Y52	Z52	X53	Y53	Z53	X54	Y54	Z54	X55	Y55	Z55	X56	Y56	Z56	X57	Y57	Z57	X58	Y58	Z58	X59	Y59	Z59	X60	Y60	Z60	X61	Y61	Z61	X62	Y62	Z62	X63	Y63	Z63	X64	Y64	Z64	X65	Y65	Z65	X66	Y66	Z66	X67	Y67	Z67	X68	Y68	Z68	X69	Y69	Z69	X70	Y70	Z70	
631	5.25	-1038.1813	214.54788	-1644.0601	-1109.4474	204.32451	-1599.2966	-1063.9036	172.25171	-1625.3213	-1054.157	262.30237	-1634.8527	-1352.5883	235.0972	1003.3654	-1281.4205	227.29732	1052.3672	-1322.6799	193.81676	1021.0673	-1284.3918	287.98541	1052.7004	814.11414	187.5546	1209.5696	892.19092	178.70639	1179.1172	844.41022	145.53592	1198.3662	860.98907	292.62592	1168.4047	1115.7499	209.70085	-1401.6099	1056.2117	194.1114	-1460.2937	1094.6846	162.20328	-1423.9756	1069.6782	239.42097	-1426.2035	-1204.7021	1686.0793	-1562.8199	-1129.1613	1688.2697	-1605.8234	-1173.1526	1724.329	-1581.8569	-1134.0417	1581.0057	-1603.8055	-1239.5651	1699.12	1119.588	-1309.349	1698.8319	1072.014	-1270.4534	1736.3743	1096.9844	-1245.0243	1593.4281	1106.5073	988.93646	1664.2061	1162.1768	957.73425	1700.2379	1183.942	922.3855	1662.1577	1215.1161	939.81073	1659.4696	1159.8507	999.01746	1668.455	-1579.4186	1058.8927	1670.1885	-1518.6136	1024.9471	1708.0679	-1551.0856	1059.2567	1672.1705	-1585.4022	-180.71852	1639.0015	-226.08829	-266.35944	1637.8076	-229.17767	-219.23508	1675.356	-228.8681	-217.30727	1636.5211	-259.33575	-220.60896	1640.9597	-180.21011																																														-1068.9633	210.13208	-1624.7252	-1074.1261	248.78406	-1624.1172	-1321.2167	231.65892	1024.9659	-1319.718	270.42493	1028.9597	847.9585	183.71912	1196.3691	851.56232	222.49925	1194.3409	1088.522	202.57152	-1428.447	1082.6713	240.89578	-1432.692	-1171.8728	1687.0311	-1581.5087	-1170.5355	1648.0558	-1581.1447	-1271.0674	1698.9899	1098.1117	-1271.7078	1660.0128	1099.2871	953.08191	1705.6101	1187.1871	973.00574	1733.8136	1169.0596	1026.5006	1669.2506	-1551.5087	1028.0599	1630.2841	-1551.9333	-218.77159	1638.4709	-227.46098	-218.28192	1599.5023	-225.9744
632	5.2583333	-1038.1862	214.52992	-1644.0571	-1109.4557	204.29184	-1599.2654	-1063.9695	172.51665	-1625.3934	-1054.1423	262.36307	-1634.8856	-1352.6122	235.2574	1003.4257	-1281.3678	227.30281	1052.3363	-1322.6711	193.78633	1021.059	-1284.4393	287.9426	1052.7678	813.89819	187.76854	1209.4961	892.59631	179.38747	1178.7146	844.45947	145.52719	1198.4043	860.97693	292.54492	1168.4495	1115.7455	209.66821	-1401.5981	1056.2239	194.09514	-1460.3005	1094.7635	161.98293	-1423.8875	1069.663	239.40913	-1426.2123	-1204.6948	1686.0569	-1562.8257	-1129.1517	1688.3164	-1605.8778	-1173.2125	1724.2279	-1581.7521	-1134.0239	1580.9965	-1603.8538	-1239.6171	1699.2015	1119.6187	-1309.2775	1698.7305	1071.9756	-1270.4518	1736.3577	1096.9822	-1244.9349	1593.6431	1106.3501	988.92432	1664.2209	1162.1624	957.68134	1700.3007	1183.8588	922.23413	1662.1406	1215.048	939.77362	1659.4608	1159.7964	999.02075	1668.4564	-1579.4219	1058.7767	1670.0122	-1518.6217	1024.9476	1708.0645	-1551.0817	1059.2609	1672.1631	-1585.4036	-180.74457	1638.9882	-226.06982	-266.44449	1637.8894	-229.16486	-219.22034	1675.3412	-228.87445	-217.28934	1636.5234	-259.33517	-220.54239	1640.9119	-180.26979																																														-1068.9489	210.11075	-1624.7231	-1074.0688	248.76706	-1624.0342	-1321.1539	231.74501	1025.0223	-1319.6046	270.50351	1029.0692	847.7359	184.16493	1196.2611	851.02625	222.96622	1194.1086	1088.5834	202.5616	-1428.3862	1082.7465	240.88753	-1432.6353	-1171.9492	1687.0361	-1581.4873	-1170.6255	1648.0596	-1581.2098	-1271.0007	1698.9893	1098.1543	-1271.5734	1660.0126	1099.377	953.05096	1705.6478	1187.0742	973.01251	1733.8296	1168.9543	1026.4253	1669.1699	-1551.5383	1027.9056	1630.2007	-1551.9961	-218.79965	1638.5001	-227.44415	-218.35469	1599.532	-225.9313
633	5.2666667	-1038.1776	214.43787	-1643.9916	-1109.4227	204.31874	-1599.2634	-1064.2513	172.90952	-1625.0504	-1054.1359	262.29364	-1634.8271	-1352.6722	235.12363	1003.4297	-1281.3252	227.29428	1052.3359	-1322.6708	193.77623	1021.0281	-1284.5715	287.93478	1052.8335	814.06018	187.66943	1209.526	892.17163	178.70903	1179.1251	844.4234	145.58122	1198.322	860.9527	292.5365	1168.337	1115.8052	209.98671	-1401.7614	1056.2263	194.09813	-1460.2526	1094.7977	162.00703	-1423.89	1069.6781	239.405	-1426.2095	-1204.6945	1686.068	-1562.8285	-1129.1653	1688.321	-1605.8688	-1173.1682	1724.2939	-1581.83	-1134.0436	1581.0171	-1603.822	-1239.5544	1699.1135	1119.5925	-1309.3667	1698.8796	1072.0366	-1270.4094	1736.3079	1096.967	-1244.9486	1593.6293	1106.3969	988.91949	1664.2069	1162.1567	957.71002	1700.2336	1183.9434	922.30981	1662.1533	1215.093	939.81714	1659.4668	1159.7776	999.02234	1668.47	-1579.4246	1058.7815	1670.0121	-1518.6321	1024.9474	1708.0696	-1551.0946	1059.2583	1672.1765	-1585.4087	-180.52184	1639.142	-226.16698	-266.41077	1637.8628	-229.1682	-219.23647	1675.3639	-228.86533	-217.28864	1636.5144	-259.32953	-220.55096	1640.9313	-180.25233																																														-1069.1914	210.03288	-1624.5206	-1074.3356	248.6882	-1623.9694	-1321.2251	231.67273	1024.9858	-1319.7463	270.43387	1029.0338	848.02087	183.77368	1196.3083	851.67316	222.54843	1194.264	1088.5182	202.70976	-1428.5502	1082.6093	241.00934	-1432.9351	-1171.8837	1687.0466	-1581.5256	-1170.5398	1648.071	-1581.2075	-1271.0719	1699.0078	1098.1228	-1271.7642	1660.0326	1099.3308	953.03351	1705.632	1187.2079	972.97095	1733.8464	1169.1125	1026.4188	1669.1769	-1551.5543	1027.8931	1630.2075	-1552.015	-218.73615	1638.5728	-227.50229	-218.20619	1599.603	-226.05855
634	5.275	-1038.2188	214.50053	-1644.054	-1109.4341	204.31885	-1599.2661	-1064.2257	172.89186	-1625.0662	-1054.1478	262.30954	-1634.8452	-1352.6584	235.09143	1003.4506	-1281.4165	227.2926	1052.3434	-1322.6102	193.90509	1020.9576	-1284.4124	287.94873	1052.7301	814.06171	187.74973	1209.576	892.17194	178.73013	1179.1228	844.39728	145.63025	1198.28	860.98785	292.54831	1168.4097	1115.7964	209.9794	-1401.7671	1056.2018	194.14528	-1460.2749	1094.8347	162.14209	-1423.8948	1069.6825	239.40677	-1426.1968	-1204.6953	1686.0645	-1562.8353	-1129.1615	1688.2936	-1605.8358	-1173.1688	1724.2887	-1581.8246	-1134.0459	1581.0101	-1603.823	-1239.5623	1699.127	1119.5958	-1309.2648	1698.699	1071.964	-1270.4277	1736.3199	1096.9738	-1245.0098	1593.4938	1106.5076	988.9212	1664.215	1162.1681	957.65588	1700.2888	1183.9082	922.84692	1661.9338	1215.2067	939.8172	1659.4581	1159.7814	999.02069	1668.4583	-1579.4178	1058.8931	1670.166	-1518.6058	1024.9492	1708.0674	-1551.0916	1059.2594	1672.1761	-1585.4069	-180.53441	1639.1434	-226.17122	-266.27951	1637.7305	-229.19217	-219.21919	1675.3591	-228.87967	-217.27757	1636.5127	-259.36194	-220.55235	1640.9397	-180.25317																																														-1069.2203	210.06819	-1624.5566	-1074.4131	248.71733	-1624.0271	-1321.2543	231.65361	1025.0029	-1319.8622	270.40686	1029.156	848.04614	183.82545	1196.3263	851.75012	222.59846	1194.3431	1088.5674	202.74474	-1428.4995	1082.655	241.04843	-1432.8435	-1171.8905	1687.0325	-1581.5105	-1170.5535	1648.0569	-1581.1821	-1270.9838	1698.934	1098.1235	-1271.5637	1659.9567	1099.3223	953.27954	1705.3381	1186.9513	973.03766	1733.5179	1168.6068	1026.4895	1669.2417	-1551.5177	1028.0356	1630.2747	-1551.9456	-218.66008	1638.5151	-227.51445	-218.06876	1599.5463	-226.0705
635	5.2833333	-1038.2054	214.58716	-1644.0809	-1109.4252	204.31328	-1599.3019	-1063.9408	172.59442	-1625.3871	-1054.1266	262.29355	-1634.8287	-1352.5839	235.29608	1003.4728	-1281.401	227.31744	1052.3501	-1322.6356	193.69426	1021.0097	-1284.406	287.90033	1052.7792	814.05682	187.82904	1209.5002	892.11169	178.60921	1179.158	844.45227	145.49446	1198.4161	860.98798	292.51929	1168.5171	1115.7925	209.99063	-1401.756	1056.2412	194.14253	-1460.2501	1094.6462	162.08897	-1423.8816	1069.6476	239.39781	-1426.2152	-1204.7013	1686.0702	-1562.8239	-1129.1689	1688.3119	-1605.8798	-1173.1702	1724.2966	-1581.8279	-1134.0447	1581.0117	-1603.8219	-1239.5625	1699.129	1119.59	-1309.3081	1698.7667	1071.989	-1270.4152	1736.3188	1096.9683	-1245.0708	1593.3204	1106.5574	988.91187	1664.1895	1162.1742	957.64319	1700.301	1183.8799	922.36188	1662.1455	1215.0801	939.82825	1659.4366	1159.7981	999.02112	1668.465	-1579.4264	1058.7673	1669.9973	-1518.6183	1024.9462	1708.0693	-1551.087	1059.252	1672.1694	-1585.4048	-180.53972	1639.1464	-226.18823	-266.37668	1637.8361	-229.17604	-219.22548	1675.3527	-228.86967	-217.30652	1636.5275	-259.33331	-220.58813	1640.9639	-180.2205																																														-1068.9559	210.1512	-1624.7467	-1074.1172	248.80254	-1624.0876	-1321.1476	231.77248	1025.0582	-1319.6332	270.52466	1029.1786	848.13623	183.80357	1196.2524	851.86365	222.56328	1194.0635	1088.4658	202.71832	-1428.5974	1082.639	241.02342	-1433.0436	-1171.8925	1687.0438	-1581.5259	-1170.5557	1648.0681	-1581.2102	-1271.0114	1698.9656	1098.1262	-1271.6335	1659.9893	1099.3344	953.0708	1705.5815	1187.0537	972.98969	1733.7556	1168.8751	1026.4128	1669.1675	-1551.5476	1027.8821	1630.1979	-1552.0094	-218.71101	1638.5636	-227.51689	-218.16608	1599.5938	-226.08394
636	5.2916667	-1038.1982	214.46902	-1644.0128	-1109.446	204.29968	-1599.2979	-1064.2666	172.89928	-1625.0731	-1054.1389	262.31281	-1634.8458	-1352.6779	235.2442	1003.5094	-1281.3044	227.35498	1052.2621	-1322.7042	193.72267	1021.0481	-1284.451	287.9166	1052.812	814.06519	187.677	1209.4574	892.17749	178.67238	1179.1119	844.47656	145.51062	1198.3953	860.94403	292.5416	1168.5046	1115.7749	209.97026	-1401.7603	1056.2662	194.10176	-1460.2146	1094.7706	162.03268	-1423.8361	1069.6718	239.3784	-1426.2051	-1204.694	1686.0616	-1562.8276	-1129.151	1688.3099	-1605.8783	-1173.1715	1724.303	-1581.8336	-1134.032	1580.9995	-1603.8668	-1239.5443	1699.1143	1119.5872	-1309.2864	1698.7687	1071.9941	-1270.4388	1736.3495	1096.9855	-1244.9102	1593.5784	1106.3652	988.89038	1664.1915	1162.1838	957.67157	1700.2908	1183.8931	922.17108	1662.1685	1215.0743	939.82239	1659.4397	1159.7913	999.03064	1668.4526	-1579.4077	1058.8904	1670.1736	-1518.6089	1024.9526	1708.0812	-1551.0823	1059.2531	1672.171	-1585.4005	-180.52832	1639.1526	-226.19386	-266.3942	1637.8517	-229.17111	-219.24089	1675.3693	-228.87463	-217.29805	1636.5231	-259.33328	-220.51494	1640.9407	-180.25232																																														-1069.2311	210.03966	-1624.5366	-1074.3976	248.69188	-1623.9785	-1321.204	231.76524	1025.0079	-1319.6755	270.52588	1029.0427	848.05371	183.75885	1196.2533	851.67963	222.52919	1194.0824	1088.5291	202.70497	-1428.5232	1082.6514	241.00601	-1432.937	-1171.8861	1687.038	-1581.5242	-1170.5417	1648.0625	-1581.2006	-1271.0195	1698.9583	1098.1079	-1271.625	1659.9806	1099.2781	953.02673	1705.6616	1187.123	973.01355	1733.8346	1169.0176	1026.5006	1669.2424	-1551.5067	1028.0535	1630.2756	-1551.9327	-218.73048	1638.5737	-227.51843	-218.18994	1599.6039	-226.08211
